<svg width="12" height="12" viewBox="0 0 12 12" fill="none" xmlns="http://www.w3.org/2000/svg">
<path d="M6.41133 9.2845L10.9113 2.7845C10.9632 2.70949 10.9936 2.62171 10.9992 2.53066C11.0048 2.43961 10.9854 2.34877 10.9431 2.26797C10.9007 2.18717 10.8371 2.11949 10.7591 2.07225C10.681 2.02502 10.5916 2.00004 10.5003 2L1.50033 2C1.40907 1.99994 1.31953 2.02486 1.24142 2.07206C1.16331 2.11926 1.09961 2.18693 1.05722 2.26775C1.01482 2.34857 0.99536 2.43945 1.00093 2.53054C1.00651 2.62163 1.0369 2.70946 1.08883 2.7845L5.58883 9.2845C5.63505 9.35073 5.69657 9.40481 5.76817 9.44215C5.83977 9.47949 5.91933 9.49899 6.00008 9.49899C6.08083 9.49899 6.16039 9.47949 6.23199 9.44215C6.30359 9.40481 6.36512 9.35073 6.41133 9.2845Z" fill="white"/>
</svg>
