<svg width="36" height="36" viewBox="0 0 36 36" fill="none" xmlns="http://www.w3.org/2000/svg">
<path fill-rule="evenodd" clip-rule="evenodd" d="M5.40039 9C5.40039 8.52261 5.59003 8.06477 5.9276 7.72721C6.26516 7.38964 6.723 7.2 7.20039 7.2H28.8004C29.2778 7.2 29.7356 7.38964 30.0732 7.72721C30.4108 8.06477 30.6004 8.52261 30.6004 9C30.6004 9.47739 30.4108 9.93522 30.0732 10.2728C29.7356 10.6104 29.2778 10.8 28.8004 10.8H7.20039C6.723 10.8 6.26516 10.6104 5.9276 10.2728C5.59003 9.93522 5.40039 9.47739 5.40039 9ZM5.40039 18C5.40039 17.5226 5.59003 17.0648 5.9276 16.7272C6.26516 16.3896 6.723 16.2 7.20039 16.2H28.8004C29.2778 16.2 29.7356 16.3896 30.0732 16.7272C30.4108 17.0648 30.6004 17.5226 30.6004 18C30.6004 18.4774 30.4108 18.9352 30.0732 19.2728C29.7356 19.6104 29.2778 19.8 28.8004 19.8H7.20039C6.723 19.8 6.26516 19.6104 5.9276 19.2728C5.59003 18.9352 5.40039 18.4774 5.40039 18ZM16.2004 27C16.2004 26.5226 16.39 26.0648 16.7276 25.7272C17.0652 25.3896 17.523 25.2 18.0004 25.2H28.8004C29.2778 25.2 29.7356 25.3896 30.0732 25.7272C30.4108 26.0648 30.6004 26.5226 30.6004 27C30.6004 27.4774 30.4108 27.9352 30.0732 28.2728C29.7356 28.6104 29.2778 28.8 28.8004 28.8H18.0004C17.523 28.8 17.0652 28.6104 16.7276 28.2728C16.39 27.9352 16.2004 27.4774 16.2004 27Z" fill="#1A4689"/>
</svg>
