<svg width="24" height="24" viewBox="0 0 24 24" fill="none" xmlns="http://www.w3.org/2000/svg">
<path d="M11.0475 3.44707C10.6575 2.66757 9.8425 2.03707 8.8415 2.14857C7.946 2.24807 6.6165 2.58107 5.71 3.67307C4.7795 4.79457 4.4325 6.54357 5.147 9.16407C5.91 11.9596 7.043 14.7156 8.4515 16.9391C9.8495 19.1466 11.5715 20.9136 13.547 21.5911C15.294 22.1901 16.63 21.9401 17.6045 21.2821C18.5445 20.6476 19.0605 19.6931 19.3275 19.0321C19.6265 18.2921 19.4295 17.5216 19.0395 16.9536L17.601 14.8616C17.2832 14.3993 16.8257 14.051 16.2955 13.8677C15.7654 13.6844 15.1904 13.6758 14.655 13.8431L12.667 14.4646C12.6042 14.4861 12.5365 14.4887 12.4722 14.4721C12.408 14.4555 12.35 14.4203 12.3055 14.3711C11.4205 13.3346 10.429 11.8891 10.1595 10.4261C10.151 10.387 10.1568 10.3462 10.176 10.3111C10.4685 9.81957 10.9715 9.26257 11.4725 8.77507C12.321 7.94907 12.6425 6.63607 12.0825 5.51707L11.0475 3.44707V3.44707Z" fill="white"/>
</svg>
