<svg width="28" height="28" viewBox="0 0 28 28" fill="none" xmlns="http://www.w3.org/2000/svg">
<path d="M8.59955 3.4827L9.78316 3.10429C10.8931 2.75009 12.0789 3.32319 12.5541 4.44301L13.5001 6.67383C13.9115 7.64515 13.6827 8.78806 12.9347 9.49867L10.8502 11.4765C10.9789 12.6601 11.3771 13.825 12.0437 14.9712C12.6767 16.0802 13.5258 17.0509 14.5407 17.8258L17.0443 16.9898C17.9926 16.6741 19.0266 17.0382 19.6074 17.8929L20.9637 19.8839C21.6402 20.8783 21.5181 22.2489 20.6788 23.0915L19.7801 23.9946C18.8847 24.8934 17.6054 25.2201 16.4228 24.8504C13.6288 23.9792 11.0625 21.3931 8.71945 17.0921C6.37312 12.7844 5.54481 9.12796 6.23562 6.12713C6.52602 4.86431 7.42473 3.8578 8.59955 3.4827Z" fill="#EBEBEB"/>
</svg>
