<svg width="52" height="52" viewBox="0 0 52 52" fill="none" xmlns="http://www.w3.org/2000/svg">
<path d="M15.0985 15.0995C15.2494 14.9482 15.4288 14.8281 15.6262 14.7462C15.8236 14.6643 16.0353 14.6221 16.249 14.6221C16.4627 14.6221 16.6744 14.6643 16.8718 14.7462C17.0692 14.8281 17.2485 14.9482 17.3995 15.0995L25.999 23.7023L34.5985 15.0995C34.7496 14.9484 34.9289 14.8286 35.1264 14.7468C35.3238 14.665 35.5353 14.6229 35.749 14.6229C35.9627 14.6229 36.1742 14.665 36.3716 14.7468C36.569 14.8286 36.7484 14.9484 36.8995 15.0995C37.0506 15.2506 37.1704 15.43 37.2522 15.6274C37.334 15.8248 37.376 16.0363 37.376 16.25C37.376 16.4637 37.334 16.6752 37.2522 16.8726C37.1704 17.0701 37.0506 17.2494 36.8995 17.4005L28.2967 26L36.8995 34.5995C37.0506 34.7506 37.1704 34.93 37.2522 35.1274C37.334 35.3248 37.376 35.5363 37.376 35.75C37.376 35.9637 37.334 36.1752 37.2522 36.3726C37.1704 36.5701 37.0506 36.7494 36.8995 36.9005C36.7484 37.0516 36.569 37.1714 36.3716 37.2532C36.1742 37.335 35.9627 37.3771 35.749 37.3771C35.5353 37.3771 35.3238 37.335 35.1264 37.2532C34.9289 37.1714 34.7496 37.0516 34.5985 36.9005L25.999 28.2978L17.3995 36.9005C17.2484 37.0516 17.069 37.1714 16.8716 37.2532C16.6742 37.335 16.4627 37.3771 16.249 37.3771C16.0353 37.3771 15.8238 37.335 15.6264 37.2532C15.4289 37.1714 15.2496 37.0516 15.0985 36.9005C14.9474 36.7494 14.8276 36.5701 14.7458 36.3726C14.664 36.1752 14.6219 35.9637 14.6219 35.75C14.6219 35.5363 14.664 35.3248 14.7458 35.1274C14.8276 34.93 14.9474 34.7506 15.0985 34.5995L23.7012 26L15.0985 17.4005C14.9472 17.2496 14.8271 17.0702 14.7452 16.8728C14.6633 16.6754 14.6211 16.4637 14.6211 16.25C14.6211 16.0363 14.6633 15.8246 14.7452 15.6272C14.8271 15.4298 14.9472 15.2504 15.0985 15.0995Z" fill="#0D285B"/>
</svg>
