<svg width="44" height="44" viewBox="0 0 44 44" fill="none" xmlns="http://www.w3.org/2000/svg">
<circle cx="22" cy="22" r="22" fill="url(#paint0_linear_561_2)"/>
<path fill-rule="evenodd" clip-rule="evenodd" d="M16.5425 9.077C17.911 9.014 18.3473 9 21.8333 9C25.3193 9 25.7557 9.01517 27.123 9.077C28.4903 9.13883 29.4237 9.357 30.2403 9.67317C31.0955 9.99633 31.8713 10.5015 32.513 11.1548C33.1663 11.7953 33.6703 12.57 33.9923 13.4263C34.3097 14.243 34.5267 15.1763 34.5897 16.5413C34.6527 17.9122 34.6667 18.3485 34.6667 21.8333C34.6667 25.3193 34.6515 25.7557 34.5897 27.1242C34.5278 28.4892 34.3097 29.4225 33.9923 30.2392C33.6703 31.0956 33.1655 31.8716 32.513 32.513C31.8713 33.1663 31.0955 33.6703 30.2403 33.9923C29.4237 34.3097 28.4903 34.5267 27.1253 34.5897C25.7557 34.6527 25.3193 34.6667 21.8333 34.6667C18.3473 34.6667 17.911 34.6515 16.5425 34.5897C15.1775 34.5278 14.2442 34.3097 13.4275 33.9923C12.5711 33.6703 11.7951 33.1655 11.1537 32.513C10.5008 31.8721 9.99553 31.0965 9.67317 30.2403C9.357 29.4237 9.14 28.4903 9.077 27.1253C9.014 25.7545 9 25.3182 9 21.8333C9 18.3473 9.01517 17.911 9.077 16.5437C9.13883 15.1763 9.357 14.243 9.67317 13.4263C9.99601 12.5701 10.5016 11.7945 11.1548 11.1537C11.7954 10.5009 12.5706 9.99568 13.4263 9.67317C14.243 9.357 15.1763 9.14 16.5413 9.077H16.5425ZM27.0192 11.387C25.6658 11.3252 25.2598 11.3123 21.8333 11.3123C18.4068 11.3123 18.0008 11.3252 16.6475 11.387C15.3957 11.4442 14.7167 11.653 14.264 11.8292C13.6655 12.0625 13.2373 12.339 12.7882 12.7882C12.3624 13.2024 12.0347 13.7067 11.8292 14.264C11.653 14.7167 11.4442 15.3957 11.387 16.6475C11.3252 18.0008 11.3123 18.4068 11.3123 21.8333C11.3123 25.2598 11.3252 25.6658 11.387 27.0192C11.4442 28.271 11.653 28.95 11.8292 29.4027C12.0345 29.9592 12.3623 30.4643 12.7882 30.8785C13.2023 31.3043 13.7075 31.6322 14.264 31.8375C14.7167 32.0137 15.3957 32.2225 16.6475 32.2797C18.0008 32.3415 18.4057 32.3543 21.8333 32.3543C25.261 32.3543 25.6658 32.3415 27.0192 32.2797C28.271 32.2225 28.95 32.0137 29.4027 31.8375C30.0012 31.6042 30.4293 31.3277 30.8785 30.8785C31.3043 30.4643 31.6322 29.9592 31.8375 29.4027C32.0137 28.95 32.2225 28.271 32.2797 27.0192C32.3415 25.6658 32.3543 25.2598 32.3543 21.8333C32.3543 18.4068 32.3415 18.0008 32.2797 16.6475C32.2225 15.3957 32.0137 14.7167 31.8375 14.264C31.6042 13.6655 31.3277 13.2373 30.8785 12.7882C30.4643 12.3624 29.96 12.0347 29.4027 11.8292C28.95 11.653 28.271 11.4442 27.0192 11.387ZM20.1942 25.7895C21.1096 26.1706 22.1289 26.222 23.0781 25.935C24.0272 25.648 24.8473 25.0404 25.3982 24.216C25.9491 23.3915 26.1967 22.4014 26.0987 21.4146C26.0007 20.4279 25.5632 19.5058 24.8608 18.8058C24.4131 18.3584 23.8717 18.0158 23.2757 17.8027C22.6797 17.5896 22.0438 17.5113 21.4139 17.5734C20.784 17.6355 20.1757 17.8365 19.6328 18.162C19.0899 18.4874 18.6259 18.9292 18.2742 19.4555C17.9225 19.9818 17.6919 20.5795 17.5989 21.2056C17.506 21.8317 17.553 22.4707 17.7366 23.0764C17.9202 23.6822 18.2359 24.2397 18.6608 24.7088C19.0858 25.178 19.6095 25.547 20.1942 25.7895ZM17.169 17.169C17.7815 16.5565 18.5087 16.0706 19.309 15.7391C20.1093 15.4076 20.9671 15.237 21.8333 15.237C22.6996 15.237 23.5573 15.4076 24.3577 15.7391C25.158 16.0706 25.8851 16.5565 26.4977 17.169C27.1102 17.7815 27.5961 18.5087 27.9276 19.309C28.2591 20.1093 28.4297 20.9671 28.4297 21.8333C28.4297 22.6996 28.2591 23.5573 27.9276 24.3577C27.5961 25.158 27.1102 25.8851 26.4977 26.4977C25.2606 27.7347 23.5828 28.4297 21.8333 28.4297C20.0839 28.4297 18.4061 27.7347 17.169 26.4977C15.9319 25.2606 15.237 23.5828 15.237 21.8333C15.237 20.0839 15.9319 18.4061 17.169 17.169ZM29.8927 16.2193C30.0445 16.0761 30.166 15.904 30.25 15.713C30.3341 15.522 30.3789 15.3161 30.382 15.1074C30.385 14.8988 30.3462 14.6916 30.2677 14.4983C30.1893 14.3049 30.0728 14.1293 29.9253 13.9817C29.7777 13.8342 29.6021 13.7177 29.4087 13.6393C29.2154 13.5608 29.0082 13.522 28.7996 13.525C28.5909 13.5281 28.385 13.5729 28.194 13.657C28.003 13.741 27.8309 13.8625 27.6877 14.0143C27.4092 14.3095 27.2567 14.7016 27.2627 15.1074C27.2686 15.5132 27.4324 15.9007 27.7194 16.1877C28.0063 16.4746 28.3938 16.6384 28.7996 16.6443C29.2054 16.6503 29.5975 16.4978 29.8927 16.2193Z" fill="white"/>
<defs>
<linearGradient id="paint0_linear_561_2" x1="38.5" y1="6" x2="8" y2="46.5" gradientUnits="userSpaceOnUse">
<stop stop-color="#6900EF"/>
<stop offset="0.505668" stop-color="#DB2424"/>
<stop offset="0.810027" stop-color="#DBA824"/>
</linearGradient>
</defs>
</svg>
