<svg width="40" height="40" viewBox="0 0 40 40" fill="none" xmlns="http://www.w3.org/2000/svg">
<path d="M20 1.25C9.66187 1.25 1.25 9.66187 1.25 20C1.25 30.3394 9.66187 38.75 20 38.75C30.3387 38.75 38.75 30.3394 38.75 20C38.75 9.66187 30.3394 1.25 20 1.25ZM32.5294 30.1275C31.7891 29.4564 30.9964 28.8455 30.1588 28.3006C31.2089 26.1774 31.8476 23.8746 32.0412 21.5138H36.0475C35.7511 24.6694 34.5269 27.6667 32.5294 30.1275V30.1275ZM3.95375 21.5138H7.88938C8.0846 23.8873 8.72916 26.2021 9.78875 28.335C8.97082 28.8716 8.19578 29.4709 7.47063 30.1275C5.47292 27.6668 4.24912 24.6694 3.95375 21.5138V21.5138ZM7.47063 9.87312C8.195 10.5305 8.97011 11.1296 9.78875 11.665C8.66903 13.9171 8.01354 16.3714 7.86125 18.8819H3.92062C4.14791 15.585 5.38772 12.4388 7.47063 9.87312V9.87312ZM18.6844 5.97438V12.0044C16.8784 11.8624 15.1099 11.4133 13.455 10.6763C14.8314 8.74366 16.6169 7.13827 18.6844 5.97438V5.97438ZM18.6844 14.6425V18.8819H10.4981C10.6427 16.8205 11.1854 14.8067 12.0963 12.9519C14.1693 13.9168 16.4029 14.49 18.6844 14.6425V14.6425ZM18.6844 21.5138V25.3575C16.3951 25.511 14.1543 26.0881 12.0756 27.0594C11.231 25.3189 10.7074 23.4402 10.53 21.5138H18.6844ZM18.6844 27.9969V34.0394C16.6028 32.8843 14.8063 31.2777 13.4269 29.3375C15.0896 28.5926 16.868 28.1391 18.6844 27.9969V27.9969ZM21.3156 33.9844V27.9969C23.125 28.1406 24.8669 28.5831 26.4887 29.2994C25.1261 31.2191 23.3606 32.818 21.3156 33.9844V33.9844ZM21.3156 25.3575V21.5138H29.3994C29.2165 23.4282 28.6897 25.2939 27.8444 27.0213C25.7879 26.073 23.5752 25.5091 21.3156 25.3575V25.3575ZM21.3156 18.8819V14.6425C23.5763 14.4917 25.7902 13.9278 27.8475 12.9788C28.7501 14.8264 29.288 16.8306 29.4319 18.8819H21.3156ZM21.3156 12.0044V6.01438C23.362 7.18024 25.1288 8.77921 26.4925 10.6994C24.8527 11.4229 23.1024 11.8641 21.3156 12.0044ZM27.8331 8.10375C26.5983 6.60976 25.1398 5.31571 23.5094 4.2675C26.1863 4.86641 28.6655 6.14012 30.7113 7.9675C30.1201 8.49977 29.49 8.98717 28.8263 9.42563C28.5157 8.96996 28.1843 8.52886 27.8331 8.10375V8.10375ZM12.0969 8.10438C11.7543 8.51978 11.43 8.94998 11.125 9.39375C10.4792 8.96334 9.86533 8.48689 9.28813 7.96812C11.3069 6.16513 13.7478 4.90049 16.385 4.29125C14.7686 5.33491 13.3223 6.62099 12.0969 8.10438V8.10438ZM11.1256 30.6069C11.3806 30.9781 11.6494 31.3406 11.9325 31.6931C13.1928 33.2624 14.6972 34.6189 16.3881 35.7106C13.7499 35.1018 11.308 33.8369 9.28875 32.0331C9.86576 31.5139 10.4797 31.0373 11.1256 30.6069V30.6069ZM27.8588 31.865C28.2002 31.4491 28.5236 31.0187 28.8281 30.575C29.4912 31.0138 30.1209 31.5012 30.7119 32.0331C28.6659 33.8601 26.1867 35.1338 23.51 35.7331C25.1516 34.6773 26.6188 33.3723 27.8588 31.865V31.865ZM32.0694 18.8819C31.9187 16.3841 31.269 13.9419 30.1588 11.6994C30.9965 11.1549 31.7892 10.5442 32.5294 9.87312C34.6126 12.4386 35.8525 15.5849 36.0794 18.8819H32.0694" fill="white"/>
</svg>
