<svg width="28" height="28" viewBox="0 0 28 28" fill="none" xmlns="http://www.w3.org/2000/svg">
<path fill-rule="evenodd" clip-rule="evenodd" d="M10.9148 10.3628H15.3716V12.5828C16.0136 11.306 17.66 10.1588 20.1332 10.1588C24.8744 10.1588 26 12.7004 26 17.3636V26H21.2V18.4256C21.2 15.77 20.558 14.2724 18.9236 14.2724C16.6568 14.2724 15.7148 15.8864 15.7148 18.4244V26H10.9148V10.3628ZM2.684 25.796H7.484V10.1588H2.684V25.796ZM8.1716 5.06C8.17178 5.46233 8.09199 5.86068 7.93686 6.2319C7.78174 6.60313 7.55438 6.93982 7.268 7.2224C6.68768 7.79915 5.90217 8.12198 5.084 8.12C4.26727 8.11945 3.48357 7.79744 2.9024 7.2236C2.61705 6.94006 2.39046 6.60299 2.23561 6.23172C2.08076 5.86045 2.00069 5.46227 2 5.06C2 4.2476 2.324 3.47 2.9036 2.8964C3.48426 2.32179 4.26829 1.99964 5.0852 2C5.9036 2 6.6884 2.3228 7.268 2.8964C7.8464 3.47 8.1716 4.2476 8.1716 5.06Z" fill="white" fill-opacity="0.9"/>
</svg>
