<svg width="28" height="28" viewBox="0 0 28 28" fill="none" xmlns="http://www.w3.org/2000/svg">
<path d="M13.8867 6.97769C13.1945 6.97769 12.5178 7.18296 11.9422 7.56755C11.3667 7.95213 10.918 8.49876 10.6531 9.1383C10.3882 9.77784 10.3189 10.4816 10.454 11.1605C10.589 11.8394 10.9224 12.4631 11.4118 12.9526C11.9013 13.442 12.525 13.7754 13.2039 13.9104C13.8828 14.0455 14.5866 13.9762 15.2261 13.7113C15.8657 13.4464 16.4123 12.9978 16.7969 12.4222C17.1814 11.8466 17.3867 11.1699 17.3867 10.4777C17.3857 9.54976 17.0166 8.66013 16.3604 8.00398C15.7043 7.34784 14.8147 6.97875 13.8867 6.97769ZM13.8867 12.2277C13.5406 12.2277 13.2023 12.1251 12.9145 11.9328C12.6267 11.7405 12.4024 11.4672 12.2699 11.1474C12.1375 10.8276 12.1028 10.4757 12.1703 10.1363C12.2379 9.79682 12.4045 9.485 12.6493 9.24025C12.894 8.99551 13.2058 8.82884 13.5453 8.76132C13.8848 8.69379 14.2366 8.72845 14.5564 8.8609C14.8762 8.99336 15.1495 9.21766 15.3418 9.50544C15.5341 9.79323 15.6367 10.1316 15.6367 10.4777C15.6362 10.9417 15.4516 11.3865 15.1236 11.7145C14.7955 12.0426 14.3507 12.2272 13.8867 12.2277Z" fill="#EBEBEB"/>
<path d="M20.6111 3.74691C18.9482 2.08444 16.7284 1.09686 14.3802 0.974781C12.032 0.852704 9.72175 1.60478 7.89543 3.08587C6.06911 4.56695 4.85614 6.67204 4.49064 8.99485C4.12513 11.3177 4.633 13.6935 5.91622 15.6639L12.5283 25.8146C12.6755 26.0405 12.8767 26.2261 13.1136 26.3545C13.3506 26.483 13.616 26.5503 13.8855 26.5503C14.1551 26.5503 14.4204 26.483 14.6574 26.3545C14.8944 26.2261 15.0956 26.0405 15.2427 25.8146L21.8551 15.6639C23.0457 13.8361 23.5719 11.6546 23.3455 9.48491C23.119 7.31527 22.1536 5.28942 20.6111 3.74691ZM20.3888 14.7087L13.8856 24.6919L7.38228 14.7087C5.39166 11.6528 5.8186 7.56328 8.39745 4.98433C9.11815 4.2636 9.97375 3.6919 10.9154 3.30184C11.8571 2.91179 12.8663 2.71103 13.8856 2.71103C14.9048 2.71103 15.9141 2.91179 16.8557 3.30184C17.7974 3.6919 18.653 4.2636 19.3737 4.98433C21.9525 7.56328 22.3794 11.6528 20.3888 14.7087Z" fill="#EBEBEB"/>
</svg>
