<svg width="24" height="24" viewBox="0 0 24 24" fill="none" xmlns="http://www.w3.org/2000/svg">
<path d="M21.6004 8.84765V17.4C21.6004 18.1957 21.2843 18.9588 20.7217 19.5214C20.1591 20.084 19.396 20.4 18.6004 20.4H5.40039C4.60474 20.4 3.84168 20.084 3.27907 19.5214C2.71646 18.9588 2.40039 18.1957 2.40039 17.4V8.84765L11.6956 14.3172C11.7879 14.3717 11.8932 14.4004 12.0004 14.4004C12.1076 14.4004 12.2128 14.3717 12.3052 14.3172L21.6004 8.84765ZM18.6004 4.80005C19.3386 4.79993 20.0509 5.07198 20.601 5.56414C21.1512 6.0563 21.5006 6.73402 21.5824 7.46765L12.0004 13.104L2.41839 7.46765C2.50018 6.73402 2.84958 6.0563 3.39974 5.56414C3.94991 5.07198 4.66222 4.79993 5.40039 4.80005H18.6004Z" fill="white"/>
</svg>
