<svg width="20" height="20" viewBox="0 0 20 20" fill="none" xmlns="http://www.w3.org/2000/svg">
<path d="M7.54146 7.54146L13.3748 13.3748M4.20812 10.8748L10.8748 4.20812C11.6483 3.43457 12.6975 3 13.7915 3C14.8854 3 15.9346 3.43457 16.7081 4.20812C17.4817 4.98167 17.9162 6.03083 17.9162 7.12479C17.9162 8.21875 17.4817 9.26791 16.7081 10.0415L10.0415 16.7081C9.26791 17.4817 8.21875 17.9162 7.12479 17.9162C6.03083 17.9162 4.98167 17.4817 4.20812 16.7081C3.43457 15.9346 3 14.8854 3 13.7915C3 12.6975 3.43457 11.6483 4.20812 10.8748Z" stroke="#0C2D6C" stroke-width="2" stroke-linecap="round" stroke-linejoin="round"/>
</svg>
