<svg width="52" height="52" viewBox="0 0 52 52" fill="none" xmlns="http://www.w3.org/2000/svg">
<path d="M17.333 28.1667L29.5963 28.1667L26.888 31.005C26.4915 31.4216 26.2767 31.9787 26.291 32.5536C26.3052 33.1286 26.5472 33.6743 26.9638 34.0708C27.3805 34.4673 27.9375 34.6821 28.5125 34.6679C29.0874 34.6536 29.6332 34.4116 30.0297 33.995L36.2263 27.495C36.2987 27.4064 36.3639 27.3122 36.4213 27.2133C36.5214 27.0891 36.6017 26.9502 36.6597 26.8016C36.7358 26.6079 36.7798 26.4029 36.7897 26.195C36.7897 26.195 36.833 26 36.833 26C36.8296 25.7168 36.7707 25.4371 36.6597 25.1766C36.5541 24.9184 36.3996 24.683 36.2047 24.4833L29.7047 17.9833C29.5033 17.7802 29.2636 17.6191 28.9996 17.5091C28.7356 17.3991 28.4524 17.3424 28.1663 17.3424C27.8803 17.3424 27.5971 17.3991 27.3331 17.5091C27.0691 17.6191 26.8294 17.7802 26.628 17.9833C26.4249 18.1847 26.2637 18.4244 26.1537 18.6884C26.0437 18.9524 25.9871 19.2356 25.9871 19.5217C25.9871 19.8077 26.0437 20.0909 26.1537 20.3549C26.2637 20.6189 26.4249 20.8586 26.628 21.06L29.4447 23.8333H17.333C16.7584 23.8333 16.2073 24.0616 15.8009 24.4679C15.3946 24.8742 15.1663 25.4253 15.1663 26C15.1663 26.5746 15.3946 27.1257 15.8009 27.532C16.2073 27.9384 16.7584 28.1667 17.333 28.1667Z" fill="#0C2D6C"/>
<path d="M26.0003 47.6667C30.2856 47.6667 34.4746 46.396 38.0377 44.0152C41.6007 41.6344 44.3778 38.2506 46.0177 34.2915C47.6576 30.3324 48.0867 25.976 47.2507 21.7731C46.4147 17.5701 44.3511 13.7095 41.321 10.6794C38.2908 7.64923 34.4302 5.58568 30.2273 4.74967C26.0243 3.91366 21.6679 4.34273 17.7088 5.98263C13.7498 7.62253 10.3659 10.3996 7.98514 13.9627C5.60438 17.5257 4.33365 21.7148 4.33365 26C4.33365 28.8453 4.89407 31.6628 5.98292 34.2915C7.07178 36.9202 8.66773 39.3087 10.6797 41.3207C12.6916 43.3326 15.0801 44.9286 17.7088 46.0174C20.3376 47.1063 23.155 47.6667 26.0003 47.6667V47.6667ZM26.0003 8.66669C29.4285 8.66669 32.7797 9.68327 35.6302 11.5879C38.4807 13.4925 40.7023 16.1996 42.0142 19.3668C43.3261 22.5341 43.6694 26.0192 43.0006 29.3816C42.3318 32.7439 40.6809 35.8324 38.2568 38.2565C35.8327 40.6806 32.7442 42.3315 29.3819 43.0003C26.0195 43.6691 22.5344 43.3259 19.3671 42.0139C16.1999 40.702 13.4928 38.4804 11.5882 35.6299C9.68357 32.7795 8.66698 29.4282 8.66698 26C8.66698 21.4029 10.4932 16.9941 13.7438 13.7435C16.9944 10.4929 21.4032 8.66669 26.0003 8.66669V8.66669Z" fill="#0C2D6C"/>
</svg>
