<svg width="40" height="40" viewBox="0 0 40 40" fill="none" xmlns="http://www.w3.org/2000/svg">
<path fill-rule="evenodd" clip-rule="evenodd" d="M20.0003 1.66675C9.87533 1.66675 1.66699 9.87508 1.66699 20.0001C1.66699 30.1251 9.87533 38.3334 20.0003 38.3334C30.1253 38.3334 38.3337 30.1251 38.3337 20.0001C38.3337 9.87508 30.1253 1.66675 20.0003 1.66675ZM27.947 16.9001C28.0933 16.7328 28.2047 16.538 28.2746 16.327C28.3446 16.1161 28.3716 15.8933 28.3541 15.6717C28.3367 15.4502 28.2751 15.2344 28.173 15.037C28.0709 14.8396 27.9303 14.6646 27.7596 14.5223C27.5888 14.38 27.3914 14.2734 27.1788 14.2085C26.9663 14.1437 26.7429 14.122 26.5218 14.1448C26.3007 14.1676 26.0865 14.2343 25.8916 14.3411C25.6967 14.4479 25.5251 14.5927 25.387 14.7667L18.2203 23.3651L14.512 19.6551C14.1977 19.3515 13.7767 19.1835 13.3397 19.1873C12.9027 19.1911 12.4846 19.3664 12.1756 19.6754C11.8666 19.9844 11.6913 20.4024 11.6875 20.8394C11.6837 21.2764 11.8517 21.6974 12.1553 22.0117L17.1553 27.0118C17.3191 27.1754 17.5152 27.3032 17.731 27.3868C17.9469 27.4705 18.1778 27.5083 18.4091 27.4978C18.6404 27.4873 18.867 27.4287 19.0743 27.3258C19.2817 27.2229 19.4654 27.0779 19.6137 26.9001L27.947 16.9001Z" fill="#01C443"/>
</svg>
