<svg width="52" height="52" viewBox="0 0 52 52" fill="none" xmlns="http://www.w3.org/2000/svg">
<path fill-rule="evenodd" clip-rule="evenodd" d="M38.999 26.0001C38.999 26.4311 38.8278 26.8444 38.523 27.1491C38.2183 27.4539 37.805 27.6251 37.374 27.6251H18.5467L25.5245 34.5996C25.6756 34.7507 25.7954 34.93 25.8772 35.1275C25.959 35.3249 26.001 35.5364 26.001 35.7501C26.001 35.9638 25.959 36.1753 25.8772 36.3727C25.7954 36.5702 25.6756 36.7495 25.5245 36.9006C25.3734 37.0517 25.194 37.1715 24.9966 37.2533C24.7992 37.3351 24.5877 37.3772 24.374 37.3772C24.1603 37.3772 23.9488 37.3351 23.7514 37.2533C23.5539 37.1715 23.3746 37.0517 23.2235 36.9006L13.4735 27.1506C13.3222 26.9997 13.2021 26.8203 13.1202 26.6229C13.0383 26.4255 12.9961 26.2138 12.9961 26.0001C12.9961 25.7864 13.0383 25.5747 13.1202 25.3773C13.2021 25.1799 13.3222 25.0005 13.4735 24.8496L23.2235 15.0996C23.5286 14.7945 23.9425 14.623 24.374 14.623C24.8055 14.623 25.2194 14.7945 25.5245 15.0996C25.8296 15.4047 26.001 15.8186 26.001 16.2501C26.001 16.6816 25.8296 17.0955 25.5245 17.4006L18.5467 24.3751H37.374C37.805 24.3751 38.2183 24.5463 38.523 24.8511C38.8278 25.1558 38.999 25.5691 38.999 26.0001Z" fill="#061A40"/>
</svg>
